# Blender v2.79 (sub 0) OBJ File: 'platform.blend'
# www.blender.org
mtllib bohnomme.mtl
o Cube.001_Cube.002
v -1.355286 -1.929961 -0.728840
v -1.674061 1.929961 -0.728840
v 0.797202 -1.929961 -0.728840
v 1.115977 1.929961 -0.728840
v -1.355286 -1.929961 0.745027
v -1.674061 1.929961 0.745027
v 0.797202 -1.929961 0.745027
v 1.115977 1.929961 0.745027
v 0.224644 -1.929961 -0.728840
v -0.782729 -1.929961 -0.728840
v -0.782729 1.929961 -0.728840
v 0.224644 1.929961 -0.728840
v -0.782729 -1.929961 0.745027
v 0.224644 -1.929961 0.745027
v 0.224644 1.929961 0.745027
v -0.782729 1.929961 0.745027
v -0.604084 1.929961 -0.467469
v 0.046000 1.929961 -0.467469
v 0.046000 1.929961 0.483656
v -0.604084 1.929961 0.483656
v -0.604084 2.631510 -0.467469
v 0.046000 2.631510 -0.467469
v 0.046000 2.631510 0.483656
v -0.604084 2.631510 0.483656
v -0.904633 2.631510 -0.907196
v 0.346549 2.631510 -0.907196
v 0.346549 2.631510 0.923383
v -0.904633 2.631510 0.923383
v -0.904633 3.858616 -0.907196
v 0.346549 3.858616 -0.907196
v 0.346549 3.858616 0.923383
v -0.904633 3.858616 0.923383
v -1.790102 0.493687 -0.728840
v -1.790102 1.339255 -0.728840
v 1.232017 1.339255 -0.728840
v 1.232017 0.493687 -0.728840
v 1.232017 1.339255 0.745027
v 1.232017 0.493687 0.745027
v -1.790102 1.339255 0.745027
v -1.790102 0.493687 0.745027
v 0.224644 1.339255 0.745027
v 0.224644 0.493687 0.745027
v -0.782729 1.339255 0.745027
v -0.782729 0.493687 0.745027
v -0.782729 1.339255 -0.728840
v -0.782729 0.493687 -0.728840
v 0.224644 1.339255 -0.728840
v 0.224644 0.493687 -0.728840
v 1.232017 1.219428 -0.519975
v 1.232017 0.613515 -0.519975
v 1.232017 1.219428 0.536162
v 1.232017 0.613515 0.536162
v 3.224298 1.219428 -0.519975
v 3.224298 0.613515 -0.519975
v 3.224298 1.219428 0.536162
v 3.224298 0.613515 0.536162
v -1.790102 0.624954 -0.500036
v -1.790102 1.207988 -0.500036
v -1.790102 1.207988 0.516223
v -1.790102 0.624954 0.516223
v -3.441128 0.624954 -0.500035
v -3.441128 1.207988 -0.500035
v -3.441128 1.207988 0.516223
v -3.441128 0.624954 0.516223
v -0.715458 -1.929961 -0.630418
v -1.211547 -1.929961 -0.630418
v 0.653463 -1.929961 0.646605
v 0.653463 -1.929961 -0.630418
v 0.157374 -1.929961 0.646605
v -1.211547 -1.929961 0.646605
v 0.157374 -1.929961 -0.630418
v -0.715458 -1.929961 0.646605
v -0.715458 -4.170382 -0.630418
v -1.211547 -4.170382 -0.630418
v 0.653463 -4.170382 0.646605
v 0.653463 -4.170382 -0.630418
v 0.157374 -4.170382 0.646605
v -1.211547 -4.170382 0.646605
v 0.157374 -4.170382 -0.630418
v -0.715458 -4.170382 0.646605
v -0.782929 -4.170382 -0.456735
v -1.144076 -4.170382 -0.456735
v 0.584747 -4.170382 0.469717
v 0.584747 -4.170382 -0.453530
v 0.226090 -4.170382 0.469717
v -1.144076 -4.170382 0.472922
v 0.226090 -4.170382 -0.453530
v -0.782929 -4.170382 0.472922
v -0.782929 -4.647795 -0.456735
v -1.144076 -4.647795 -0.456735
v 0.584747 -4.647879 0.469717
v 0.584747 -4.647795 -0.453530
v 0.226090 -4.647879 0.469717
v -1.144076 -4.647795 0.472922
v 0.226090 -4.647795 -0.453530
v -0.782929 -4.647795 0.472922
v -0.782929 -5.141632 -0.456735
v -1.144076 -5.141632 -0.456735
v 0.584747 -5.141632 0.469717
v 0.584747 -5.141632 -0.453530
v 0.226090 -5.141632 0.469717
v -1.144076 -5.141632 0.472922
v 0.226090 -5.141632 -0.453530
v -0.782929 -5.141632 0.472922
v 0.226090 -4.951611 1.276286
v 0.584747 -4.951611 1.276286
v -1.144076 -4.951528 1.279491
v -0.782929 -4.951528 1.279491
v 0.226090 -5.141632 1.276286
v 0.584747 -5.141632 1.276286
v -1.144076 -5.141632 1.279491
v -0.782929 -5.141632 1.279491
vt 0.460777 0.434972
vt 0.460777 0.455621
vt 0.429789 0.455621
vt 0.425755 0.434972
vt 0.530822 0.341341
vt 0.530822 0.320688
vt 0.582063 0.320688
vt 0.582063 0.341341
vt 0.355710 0.434972
vt 0.355710 0.455621
vt 0.324722 0.455621
vt 0.320688 0.434972
vt 0.530822 0.476264
vt 0.530822 0.455611
vt 0.582063 0.455611
vt 0.582063 0.476264
vt 0.362838 0.668670
vt 0.342932 0.668670
vt 0.347929 0.665229
vt 0.365176 0.665229
vt 0.371852 0.486780
vt 0.320688 0.486780
vt 0.320688 0.455621
vt 0.371852 0.455621
vt 0.371852 0.553154
vt 0.320688 0.553154
vt 0.320688 0.521996
vt 0.371852 0.521996
vt 0.362778 0.493025
vt 0.329761 0.493025
vt 0.342932 0.668670
vt 0.323026 0.668670
vt 0.320688 0.665229
vt 0.337935 0.665229
vt 0.495026 0.649361
vt 0.495026 0.597838
vt 0.530048 0.597838
vt 0.530048 0.649361
vt 0.425755 0.434972
vt 0.421721 0.455621
vt 0.390733 0.455621
vt 0.390733 0.434972
vt 0.530822 0.434972
vt 0.526788 0.455621
vt 0.495800 0.455621
vt 0.495800 0.434972
vt 0.436519 0.641672
vt 0.459120 0.641672
vt 0.459120 0.666197
vt 0.436519 0.666197
vt 0.362778 0.515751
vt 0.329761 0.515751
vt 0.426698 0.549313
vt 0.426698 0.582562
vt 0.416249 0.597934
vt 0.416249 0.533941
vt 0.638996 0.499504
vt 0.638996 0.466255
vt 0.663386 0.466255
vt 0.663386 0.499504
vt 0.638430 0.666682
vt 0.615830 0.666682
vt 0.615830 0.642157
vt 0.638430 0.642157
vt 0.669385 0.320688
vt 0.669385 0.353937
vt 0.644995 0.353937
vt 0.644995 0.320688
vt 0.582063 0.384680
vt 0.582063 0.320688
vt 0.624725 0.320688
vt 0.624725 0.384680
vt 0.449299 0.582562
vt 0.459748 0.597934
vt 0.449299 0.549313
vt 0.459748 0.533941
vt 0.459748 0.597838
vt 0.459748 0.533941
vt 0.503246 0.533941
vt 0.503246 0.597838
vt 0.414513 0.612261
vt 0.414513 0.655999
vt 0.371852 0.655999
vt 0.371852 0.612261
vt 0.320688 0.617147
vt 0.320688 0.553154
vt 0.363349 0.553154
vt 0.363349 0.617147
vt 0.458911 0.597934
vt 0.458911 0.641672
vt 0.416249 0.641672
vt 0.416249 0.597934
vt 0.495800 0.320688
vt 0.495800 0.405413
vt 0.460777 0.405413
vt 0.460777 0.320688
vt 0.515706 0.320688
vt 0.530822 0.405413
vt 0.390733 0.320688
vt 0.390733 0.405413
vt 0.355710 0.405413
vt 0.355710 0.320688
vt 0.410638 0.320688
vt 0.425755 0.405413
vt 0.530822 0.590534
vt 0.530822 0.505823
vt 0.582063 0.505823
vt 0.582063 0.590534
vt 0.538777 0.501234
vt 0.574108 0.501234
vt 0.320688 0.405413
vt 0.335805 0.320688
vt 0.530822 0.455611
vt 0.530822 0.370900
vt 0.582063 0.370900
vt 0.582063 0.455611
vt 0.574802 0.345530
vt 0.538084 0.345530
vt 0.425755 0.405413
vt 0.440872 0.320688
vt 0.618726 0.523971
vt 0.582063 0.523971
vt 0.582063 0.454326
vt 0.618726 0.454326
vt 0.574802 0.366711
vt 0.538084 0.366711
vt 0.651161 0.584441
vt 0.672226 0.584441
vt 0.672226 0.621361
vt 0.651161 0.621361
vt 0.505043 0.525267
vt 0.526108 0.525267
vt 0.526108 0.594912
vt 0.505043 0.594912
vt 0.618781 0.454326
vt 0.582063 0.454326
vt 0.582063 0.384680
vt 0.618781 0.384680
vt 0.526108 0.525267
vt 0.505043 0.525267
vt 0.505043 0.455621
vt 0.526108 0.455621
vt 0.495026 0.655554
vt 0.459748 0.655554
vt 0.459748 0.597838
vt 0.495026 0.597838
vt 0.538777 0.480853
vt 0.574108 0.480853
vt 0.416249 0.641672
vt 0.436519 0.641672
vt 0.436519 0.677198
vt 0.416249 0.677198
vt 0.638996 0.523971
vt 0.618726 0.523971
vt 0.618726 0.466255
vt 0.638996 0.466255
vt 0.615830 0.584441
vt 0.651161 0.584441
vt 0.651161 0.642157
vt 0.615830 0.642157
vt 0.624725 0.320688
vt 0.644995 0.320688
vt 0.644995 0.378404
vt 0.624725 0.378404
vt 0.581836 0.668853
vt 0.564589 0.668853
vt 0.564589 0.590534
vt 0.581836 0.590534
vt 0.618781 0.384680
vt 0.636028 0.384680
vt 0.636028 0.463000
vt 0.618781 0.463000
vt 0.526108 0.507067
vt 0.526108 0.455621
vt 0.528447 0.459057
vt 0.528447 0.503632
vt 0.323026 0.617147
vt 0.342932 0.617147
vt 0.337935 0.620588
vt 0.320688 0.620588
vt 0.342932 0.617147
vt 0.347929 0.620588
vt 0.530786 0.455621
vt 0.530786 0.507067
vt 0.528447 0.503632
vt 0.528447 0.459057
vt 0.362838 0.617147
vt 0.365176 0.620588
vt 0.668408 0.666003
vt 0.651161 0.666003
vt 0.653550 0.659819
vt 0.666019 0.659819
vt 0.668408 0.621361
vt 0.666019 0.627545
vt 0.636028 0.384680
vt 0.653275 0.384680
vt 0.653275 0.463000
vt 0.636028 0.463000
vt 0.371852 0.455621
vt 0.416249 0.455621
vt 0.416249 0.533941
vt 0.371852 0.533941
vt 0.666843 0.584441
vt 0.649596 0.584441
vt 0.649596 0.506122
vt 0.666843 0.506122
vt 0.371852 0.533941
vt 0.416249 0.533941
vt 0.416249 0.612261
vt 0.371852 0.612261
vt 0.416249 0.455621
vt 0.460646 0.455621
vt 0.460646 0.533941
vt 0.416249 0.533941
vt 0.460646 0.455621
vt 0.505043 0.455621
vt 0.505043 0.533941
vt 0.460646 0.533941
vt 0.615830 0.552167
vt 0.615830 0.584665
vt 0.599232 0.584665
vt 0.599232 0.552167
vt 0.594532 0.645360
vt 0.607088 0.645360
vt 0.607088 0.662049
vt 0.594532 0.662049
vt 0.651161 0.621361
vt 0.653550 0.627545
vt 0.653275 0.384680
vt 0.670522 0.384680
vt 0.668176 0.390752
vt 0.655621 0.390752
vt 0.670522 0.429322
vt 0.668176 0.423250
vt 0.653275 0.429322
vt 0.655621 0.423250
vt 0.599232 0.584665
vt 0.599232 0.617164
vt 0.582063 0.617164
vt 0.582063 0.584665
vt 0.638430 0.658846
vt 0.650986 0.658846
vt 0.650986 0.676110
vt 0.638430 0.676110
vt 0.649596 0.523971
vt 0.649596 0.556246
vt 0.632995 0.556246
vt 0.632998 0.523971
vt 0.530822 0.622808
vt 0.530822 0.590534
vt 0.547420 0.590534
vt 0.547423 0.622808
vt 0.582063 0.645360
vt 0.594532 0.645360
vt 0.594532 0.662049
vt 0.582063 0.662049
vt 0.507495 0.666053
vt 0.495026 0.666053
vt 0.495026 0.649361
vt 0.507495 0.649361
vt 0.638430 0.642157
vt 0.650986 0.642157
vt 0.615830 0.584665
vt 0.615830 0.617164
vt 0.663386 0.499504
vt 0.663386 0.467006
vt 0.675941 0.467006
vt 0.675942 0.499504
vt 0.666843 0.566592
vt 0.666843 0.534317
vt 0.679312 0.534317
vt 0.679312 0.566592
vt 0.666843 0.506122
vt 0.679312 0.506122
vt 0.582063 0.584665
vt 0.582063 0.552167
vt 0.615830 0.556246
vt 0.615830 0.523971
vt 0.564589 0.590534
vt 0.564589 0.622808
vt 0.594532 0.679312
vt 0.582063 0.679312
vt 0.564589 0.651004
vt 0.557983 0.651004
vt 0.363349 0.565779
vt 0.363349 0.553154
vt 0.369959 0.553154
vt 0.369959 0.565779
vt 0.363349 0.578317
vt 0.363349 0.565779
vt 0.369956 0.565779
vt 0.369956 0.578317
vt 0.582063 0.523971
vt 0.588672 0.523971
vt 0.644995 0.353937
vt 0.657550 0.353937
vt 0.657550 0.382671
vt 0.644995 0.382671
vt 0.663386 0.438810
vt 0.675941 0.438810
vt 0.622436 0.584441
vt 0.615830 0.584441
vt 0.588672 0.645360
vt 0.582063 0.645360
vt 0.657550 0.353937
vt 0.670019 0.353937
vt 0.670019 0.382671
vt 0.657550 0.382671
vn -0.0000 -0.0000 -1.0000
vn 0.9812 0.1928 0.0000
vn 0.0000 -0.0000 1.0000
vn -0.9812 0.1928 0.0000
vn 0.0000 -1.0000 -0.0000
vn 0.0000 1.0000 0.0000
vn 1.0000 0.0000 0.0000
vn -1.0000 0.0000 -0.0000
vn -0.9843 -0.1766 0.0000
vn 0.9843 -0.1766 0.0000
vn 0.0000 0.9358 0.3524
usemtl Material.002
s off
f 47/1/1 12/2/1 4/3/1 35/4/1
f 35/5/2 4/6/2 8/7/2 37/8/2
f 43/9/3 16/10/3 6/11/3 39/12/3
f 39/13/4 6/14/4 2/15/4 34/16/4
f 13/17/5 5/18/5 70/19/5 72/20/5
f 16/21/6 11/22/6 2/23/6 6/24/6
f 8/25/6 4/26/6 12/27/6 15/28/6
f 11/22/6 16/21/6 20/29/6 17/30/6
f 7/31/5 14/32/5 69/33/5 67/34/5
f 9/35/5 14/36/5 13/37/5 10/38/5
f 37/39/3 8/40/3 15/41/3 41/42/3
f 41/42/3 15/41/3 16/10/3 43/9/3
f 34/43/1 2/44/1 11/45/1 45/46/1
f 45/46/1 11/45/1 12/2/1 47/1/1
f 20/47/3 19/48/3 23/49/3 24/50/3
f 16/21/6 15/28/6 19/51/6 20/29/6
f 12/27/6 11/22/6 17/30/6 18/52/6
f 15/28/6 12/27/6 18/52/6 19/51/6
f 23/53/5 22/54/5 26/55/5 27/56/5
f 19/57/7 18/58/7 22/59/7 23/60/7
f 18/61/1 17/62/1 21/63/1 22/64/1
f 17/65/8 20/66/8 24/67/8 21/68/8
f 25/69/8 28/70/8 32/71/8 29/72/8
f 22/54/5 21/73/5 25/74/5 26/55/5
f 21/73/5 24/75/5 28/76/5 25/74/5
f 24/75/5 23/53/5 27/56/5 28/76/5
f 31/77/6 30/78/6 29/79/6 32/80/6
f 28/81/3 27/82/3 31/83/3 32/84/3
f 27/85/7 26/86/7 30/87/7 31/88/7
f 26/89/1 25/90/1 29/91/1 30/92/1
f 10/93/1 46/94/1 48/95/1 9/96/1
f 46/94/1 45/46/1 47/1/1 48/95/1
f 1/97/1 33/98/1 46/94/1 10/93/1
f 33/98/1 34/43/1 45/46/1 46/94/1
f 14/99/3 42/100/3 44/101/3 13/102/3
f 42/100/3 41/42/3 43/9/3 44/101/3
f 7/103/3 38/104/3 42/100/3 14/99/3
f 38/104/3 37/39/3 41/42/3 42/100/3
f 5/105/9 40/106/9 33/107/9 1/108/9
f 33/107/8 40/106/8 60/109/8 57/110/8
f 13/102/3 44/101/3 40/111/3 5/112/3
f 44/101/3 43/9/3 39/12/3 40/111/3
f 3/113/10 36/114/10 38/115/10 7/116/10
f 35/5/7 37/8/7 51/117/7 49/118/7
f 9/96/1 48/95/1 36/119/1 3/120/1
f 48/95/1 47/1/1 35/4/1 36/119/1
f 49/121/6 51/122/6 55/123/6 53/124/6
f 37/8/7 38/115/7 52/125/7 51/117/7
f 36/114/7 35/5/7 49/118/7 50/126/7
f 38/115/7 36/114/7 50/126/7 52/125/7
f 54/127/7 53/128/7 55/129/7 56/130/7
f 51/131/3 52/132/3 56/133/3 55/134/3
f 52/135/5 50/136/5 54/137/5 56/138/5
f 50/139/1 49/140/1 53/141/1 54/142/1
f 59/143/6 58/144/6 62/145/6 63/146/6
f 40/106/8 39/13/8 59/147/8 60/109/8
f 39/13/8 34/16/8 58/148/8 59/147/8
f 34/16/8 33/107/8 57/110/8 58/148/8
f 64/149/8 63/150/8 62/151/8 61/152/8
f 60/153/3 59/154/3 63/155/3 64/156/3
f 57/157/5 60/158/5 64/159/5 61/160/5
f 58/161/1 57/162/1 61/163/1 62/164/1
f 67/165/3 69/166/3 77/167/3 75/168/3
f 71/169/1 68/170/1 76/171/1 79/172/1
f 10/173/6 13/174/6 72/175/6 65/176/6
f 9/177/5 3/178/5 68/179/5 71/180/5
f 5/18/5 1/181/5 66/182/5 70/19/5
f 3/178/5 7/31/5 67/34/5 68/179/5
f 14/183/6 9/184/6 71/185/6 69/186/6
f 1/181/5 10/187/5 65/188/5 66/182/5
f 79/189/5 76/190/5 84/191/5 87/192/5
f 77/193/5 79/189/5 87/192/5 85/194/5
f 66/195/1 65/196/1 73/197/1 74/198/1
f 65/199/7 72/200/7 80/201/7 73/202/7
f 72/203/3 70/204/3 78/205/3 80/206/3
f 70/207/8 66/208/8 74/209/8 78/210/8
f 68/211/7 67/212/7 75/213/7 76/214/7
f 69/215/8 71/216/8 79/217/8 77/218/8
f 86/219/8 82/220/8 90/221/8 94/222/8
f 88/223/3 86/224/3 94/225/3 96/226/3
f 75/227/5 77/193/5 85/194/5 83/228/5
f 74/229/5 73/230/5 81/231/5 82/232/5
f 73/230/5 80/233/5 88/234/5 81/231/5
f 80/233/5 78/235/5 86/236/5 88/234/5
f 78/235/5 74/229/5 82/232/5 86/236/5
f 76/190/5 75/227/5 83/228/5 84/191/5
f 89/237/7 96/238/7 104/239/7 97/240/7
f 90/241/1 89/242/1 97/243/1 98/244/1
f 84/245/7 83/246/7 91/247/7 92/248/7
f 85/249/8 87/250/8 95/251/8 93/252/8
f 87/253/1 84/254/1 92/255/1 95/256/1
f 83/257/3 85/258/3 93/259/3 91/260/3
f 82/261/1 81/262/1 89/242/1 90/241/1
f 81/263/7 88/264/7 96/238/7 89/237/7
f 97/265/5 104/266/5 102/267/5 98/268/5
f 100/269/5 99/270/5 101/271/5 103/272/5
f 101/271/5 99/270/5 110/273/5 109/274/5
f 94/222/8 90/221/8 98/275/8 102/276/8
f 92/248/7 91/247/7 99/277/7 100/278/7
f 93/252/8 95/251/8 103/279/8 101/280/8
f 95/256/1 92/255/1 100/281/1 103/282/1
f 93/252/8 101/280/8 109/283/8 105/284/8
f 108/285/3 107/286/3 111/287/3 112/288/3
f 106/289/3 105/290/3 109/291/3 110/292/3
f 94/222/8 102/276/8 111/293/8 107/294/8
f 96/295/11 94/296/11 107/297/11 108/298/11
f 102/267/5 104/266/5 112/299/5 111/300/5
f 99/277/7 91/247/7 106/301/7 110/302/7
f 104/239/7 96/238/7 108/303/7 112/304/7
f 91/305/11 93/306/11 105/307/11 106/308/11
