# Blender v2.79 (sub 0) OBJ File: 'platfrom.blend'
# www.blender.org
mtllib platform.mtl
o Cube
v -13.379422 0.013162 -6.253704
v 13.379423 0.013162 -6.253706
v 13.379420 0.013162 1.853924
v -13.379428 0.013162 1.853924
v -13.379416 -0.013162 -6.253706
v 13.379431 -0.013162 -6.253703
v 13.379418 -0.013162 1.853925
v -13.379423 -0.013162 1.853925
v -10.204342 0.013162 -6.253704
v 10.204344 0.013162 -6.253705
v 10.204336 0.013162 1.853923
v -10.204353 0.013162 1.853924
v -10.204328 -0.013162 -6.253705
v 10.204360 -0.013162 -6.253704
v 10.204336 -0.013162 1.853925
v -10.204346 -0.013162 1.853926
v -10.204328 -0.329821 -6.253705
v 10.204360 -0.329821 -6.253704
v 10.204336 -0.329821 1.853925
v -10.204346 -0.329821 1.853926
v -7.261685 0.013162 -6.253704
v 7.261682 0.013162 -6.253704
v 7.261665 0.013162 1.853923
v -7.261705 0.013162 1.853923
v -7.261654 -0.013162 -6.253704
v 7.261715 -0.013162 -6.253704
v 7.261671 -0.013162 1.853924
v -7.261695 -0.013162 1.853924
v -7.261654 -0.329821 -6.253704
v 7.261715 -0.329821 -6.253704
v 7.261671 -0.329821 1.853924
v -7.261695 -0.329821 1.853924
v -7.261654 -0.555590 -6.253704
v 7.261715 -0.555590 -6.253704
v 7.261671 -0.555590 1.853924
v -7.261695 -0.555590 1.853924
vt 1.428810 -1.039484
vt 1.428810 2.039484
vt 1.876357 2.039484
vt 1.876357 -1.039484
vt -0.702744 0.736066
vt -0.702744 1.208197
vt 1.702744 1.208197
vt 1.702744 0.736066
vt -0.702744 0.736066
vt -0.702744 1.208197
vt 1.702744 1.208197
vt 3.323269 1.013161
vt -0.702744 -0.208197
vt -0.702744 1.208197
vt 1.702744 -0.208197
vt -0.702744 0.736066
vt -0.702744 1.208197
vt 1.702744 1.208197
vt 1.702744 0.736066
vt -0.702744 -0.208197
vt -0.702744 1.208197
vt 1.702744 1.208197
vt 1.702744 -0.208197
vt -0.702744 -0.208197
vt -0.702744 0.263934
vt 1.702744 0.263934
vt 1.702744 -0.208197
vt -0.702744 0.578689
vt 1.702744 0.578689
vt -0.702744 -0.208197
vt -0.702744 0.263934
vt 1.702744 0.263934
vt 1.702744 -0.208197
vt -0.702744 0.578689
vt 1.702744 0.578689
vt -0.702744 0.263934
vt 1.702744 0.263934
vt 1.702744 -0.208197
vt 0.617629 -0.586850
vt 0.752604 0.559948
vt 1.429825 0.559937
vt 1.335584 -0.586809
vt -0.458886 -1.039484
vt -0.458886 2.039484
vt -0.011339 2.039484
vt -0.011339 -1.039484
vt 0.948761 -1.039484
vt 0.948760 2.039484
vt -0.702744 0.578689
vt -0.702744 0.736066
vt 1.702744 0.736066
vt 1.702744 0.578689
vt 1.702744 0.421311
vt 1.702744 0.421311
vt 1.702744 0.263934
vt -0.702744 0.263934
vt 1.702744 0.263934
vt 1.702744 0.736066
vt 1.702744 0.578689
vt -0.702744 0.421311
vt 1.702744 0.421311
vt -0.702744 0.421311
vt 1.702744 0.421311
vt 0.468711 2.039484
vt 0.468711 -1.039484
vt 0.021686 -1.467955
vt 0.021685 2.467956
vt 1.395786 2.467956
vt 1.395786 -1.467955
vt -1.960045 -0.586847
vt -1.967623 0.559884
vt -1.290411 0.559957
vt -1.241172 -0.586760
vt -0.702744 0.421311
vt -0.702744 0.421311
vt 1.702744 0.421311
vt -0.702744 0.578689
vt 1.702744 0.578689
vt -1.420946 1.586850
vt 0.909139 1.586837
vt 1.702744 0.578689
vt 1.702744 0.421311
vt 0.000000 0.000000
vt 0.000000 0.000000
vt 0.000000 0.000000
vt 0.000000 0.000000
vt 2.054479 -0.586779
vt 0.000000 0.000000
vt 0.000000 0.000000
vt -2.678925 -0.586774
vt 0.000000 0.000000
vt 0.000000 0.000000
vt 0.000000 0.000000
vt 0.000000 0.000000
vt 0.000000 0.000000
vt 0.000000 0.000000
vn -0.0000 1.0000 -0.0000
vn -0.0000 -1.0000 0.0000
vn -0.0000 -0.0001 -1.0000
vn 1.0000 0.0001 0.0000
vn 0.0000 0.0001 1.0000
vn -1.0000 -0.0002 -0.0000
vn -0.0000 0.0000 1.0000
vn 0.0000 0.0001 -1.0000
vn -0.0000 -0.0000 -1.0000
vn -1.0000 0.0000 -0.0000
vn 1.0000 0.0000 0.0000
vn 0.0765 -0.9971 0.0000
vn 0.0992 -0.9951 0.0000
vn -0.0992 -0.9951 -0.0000
vn -0.0765 -0.9971 -0.0000
usemtl Material
s off
f 10/1/1 11/2/1 3/3/1 2/4/1
f 14/5/2 6/6/2 7/7/2 15/8/2
f 10/9/3 2/10/3 6/11/3 14/12/3
f 2/13/4 3/14/4 7/7/4 6/15/4
f 12/16/5 4/17/5 8/18/5 16/19/5
f 5/20/6 8/21/6 4/22/6 1/23/6
f 3/24/7 11/25/7 15/26/7 7/27/7
f 24/28/5 12/16/5 16/19/5 28/29/5
f 1/30/8 9/31/8 13/32/8 5/33/8
f 22/34/9 10/9/9 14/12/9 26/35/9
f 5/20/2 13/36/2 16/37/2 8/38/2
f 27/39/7 31/40/7 19/41/7 15/42/7
f 1/43/1 4/44/1 12/45/1 9/46/1
f 22/47/1 23/48/1 11/2/1 10/1/1
f 30/49/2 18/50/2 19/51/2 31/52/2
f 25/53/9 29/54/9 17/55/9 13/32/9
f 13/36/10 17/56/10 20/57/10 16/37/10
f 15/8/11 19/51/11 18/50/11 14/5/11
f 14/12/9 18/58/9 30/59/9 26/35/9
f 26/35/9 30/59/9 29/54/9 25/53/9
f 17/56/2 29/60/2 32/61/2 20/57/2
f 29/60/10 33/62/10 36/63/10 32/61/10
f 9/46/1 12/45/1 24/64/1 21/65/1
f 21/66/1 24/67/1 23/68/1 22/69/1
f 16/70/7 20/71/7 32/72/7 28/73/7
f 28/73/7 32/72/7 31/40/7 27/39/7
f 9/31/9 21/74/9 25/53/9 13/32/9
f 21/74/9 22/34/9 26/35/9 25/53/9
f 11/25/5 23/75/5 27/76/5 15/26/5
f 23/75/5 24/28/5 28/29/5 27/76/5
f 33/62/2 34/77/2 35/78/2 36/63/2
f 31/52/11 35/78/11 34/77/11 30/49/11
f 32/72/7 36/79/7 35/80/7 31/40/7
f 30/59/9 34/81/9 33/82/9 29/54/9
f 31/40/9 19/41/9 35/80/9
f 30/49/9 18/50/9 34/77/9
f 35/83/12 34/84/12 18/85/12 19/86/12
f 15/42/9 7/87/9 19/41/9
f 14/12/9 6/6/9 18/58/9
f 6/88/13 7/89/13 19/86/13 18/85/13
f 32/72/7 20/71/7 36/79/7
f 29/60/7 17/55/7 33/62/7
f 13/32/7 5/33/7 17/55/7
f 16/70/7 8/90/7 20/71/7
f 17/91/14 20/92/14 8/93/14 5/94/14
f 20/92/15 17/91/15 33/95/15 36/96/15
