# Blender v2.79 (sub 0) OBJ File: 'platfrom.blend'
# www.blender.org
mtllib roof.mtl
o Cube.001
v -6.131147 0.000000 0.000000
v 5.109289 0.418421 -2.987885
v 6.131147 0.000000 0.000000
v -5.109289 0.418421 2.987885
v 5.109289 0.364178 0.000000
v -5.109289 0.472665 0.000000
v 5.109290 0.472665 0.000000
v 3.065573 0.997364 0.000000
v 1.021858 1.193706 0.000000
v -1.021858 1.193706 0.000000
v -3.065573 0.997364 0.000000
v -5.109290 0.364178 0.000000
v -3.065573 0.888876 0.000000
v -1.021858 1.085219 0.000000
v 1.021858 1.085219 0.000000
v 3.065573 0.888876 0.000000
v 5.109289 0.418421 2.987885
v 3.065573 0.943120 2.987885
v 1.021858 1.139462 2.987885
v -1.021858 1.139462 2.987885
v -3.065573 0.943120 2.987885
v -5.109289 0.418421 -2.987885
v -3.065573 0.943120 -2.987885
v -1.021858 1.139462 -2.987885
v 1.021858 1.139462 -2.987885
v 3.065573 0.943120 -2.987885
v -5.875683 0.063923 0.000000
v -5.875683 0.104605 2.240913
v -5.875683 0.145288 0.000000
v -5.875683 0.104605 -2.240913
v -5.109289 0.377738 -2.240913
v 5.109290 0.459104 -2.240913
v 5.875683 0.104605 -2.240913
v 5.875683 0.063923 0.000000
v 5.875683 0.145288 0.000000
v 5.875683 0.104605 2.240913
v 5.109289 0.377738 2.240913
v -5.109289 0.459104 2.240913
v 5.109289 0.377738 -2.240913
v 3.065573 0.902437 -2.240913
v 1.021858 1.098779 -2.240913
v -1.021858 1.098779 -2.240913
v -3.065574 0.902437 -2.240913
v -5.109289 0.459104 -2.240913
v -3.065573 0.983803 -2.240913
v -1.021858 1.180145 -2.240913
v 1.021858 1.180145 -2.240913
v 3.065574 0.983803 -2.240913
v -5.109290 0.377738 2.240913
v -3.065573 0.902437 2.240913
v -1.021858 1.098779 2.240913
v 1.021858 1.098779 2.240913
v 3.065574 0.902437 2.240913
v 5.109289 0.459104 2.240913
v 3.065573 0.983803 2.240913
v 1.021858 1.180145 2.240913
v -1.021858 1.180145 2.240913
v -3.065574 0.983803 2.240913
v 4.087431 0.813050 0.000000
v 2.043716 1.099588 0.000000
v 0.000000 1.238738 0.000000
v -2.043716 1.099588 0.000000
v -4.087431 0.813050 0.000000
v -4.087431 0.704563 0.000000
v -2.043716 0.991101 0.000000
v 0.000000 1.130251 0.000000
v 2.043716 0.991101 0.000000
v 4.087431 0.704563 0.000000
v 4.087431 0.758806 2.987885
v 2.043716 1.045344 2.987885
v 0.000000 1.184494 2.987885
v -2.043716 1.045344 2.987885
v -4.087431 0.758806 2.987885
v -4.087431 0.758806 -2.987885
v -2.043716 1.045344 -2.987885
v 0.000000 1.184494 -2.987885
v 2.043716 1.045344 -2.987885
v 4.087431 0.758806 -2.987885
v -5.676988 0.155830 1.659936
v -5.676988 0.216100 1.659936
v -5.676989 0.155830 -1.659936
v -5.676988 0.216100 -1.659936
v 5.676988 0.155830 1.659936
v 5.676988 0.216100 1.659936
v 5.676988 0.155830 -1.659936
v 5.676988 0.216100 -1.659936
v 4.087431 0.718124 -2.240913
v 2.043716 1.004662 -2.240913
v -0.000000 1.143812 -2.240913
v -2.043716 1.004662 -2.240913
v -4.087431 0.718124 -2.240913
v -4.087431 0.799489 -2.240913
v -2.043716 1.086027 -2.240913
v 0.000000 1.225177 -2.240913
v 2.043716 1.086027 -2.240913
v 4.087431 0.799489 -2.240913
v -4.087432 0.718124 2.240913
v -2.043716 1.004662 2.240913
v 0.000000 1.143812 2.240913
v 2.043716 1.004662 2.240913
v 4.087431 0.718124 2.240913
v 4.087432 0.799489 2.240913
v 2.043716 1.086027 2.240913
v -0.000000 1.225177 2.240913
v -2.043716 1.086027 2.240913
v -4.087431 0.799489 2.240913
vt 0.227602 0.227602
vt 0.772398 0.227602
vt 0.772398 0.772398
vt 0.227602 0.772398
vt 0.772398 0.227602
vt 0.772398 0.772398
vt 0.227602 0.772398
vt 0.772398 0.227602
vt 0.772398 0.772398
vt 0.227602 0.772398
vt 0.772398 0.227602
vt 0.772398 0.772398
vt 0.227602 0.772398
vt 0.227602 0.227602
vt 0.772398 0.227602
vt 0.772398 0.772398
vt 0.227602 0.772398
vt 0.772398 0.227602
vt 0.772398 0.772398
vt 0.227602 0.772398
vt 0.772398 0.227602
vt 0.772398 0.772398
vt 0.227602 0.772398
vt 0.772398 0.227602
vt 0.772398 0.772398
vt 0.227602 0.772398
vt 0.227602 0.227602
vt 0.772398 0.227602
vt 0.227602 0.772398
vt 0.772398 0.227602
vt 0.772398 0.772398
vt 0.227602 0.772398
vt 0.772398 0.227602
vt 0.772398 0.772398
vt 0.227602 0.772398
vt 0.227602 0.227602
vt 0.772398 0.227602
vt 0.772398 0.772398
vt 0.227602 0.772398
vt 0.772398 0.227602
vt 0.772398 0.772398
vt 0.227602 0.772398
vt 0.772398 0.227602
vt 0.227602 0.772398
vt 0.227602 0.227602
vt 0.772398 0.227602
vt 0.227602 0.772398
vt 0.772398 0.227602
vt 0.772398 0.772398
vt 0.227602 0.772398
vt 0.227602 0.227602
vt 0.772398 0.227602
vt 0.772398 0.772398
vt 0.227602 0.772398
vt 0.772398 0.227602
vt 0.227602 0.772398
vt 0.227602 0.227602
vt 0.227602 0.772398
vt 0.772398 0.227602
vt 0.772398 0.772398
vt 0.227602 0.772398
vt 0.772398 0.227602
vt 0.227602 0.227602
vt 0.227602 0.772398
vt 0.772398 0.227602
vt 0.772398 0.772398
vt 0.227602 0.772398
vt 0.772398 0.227602
vt 0.772398 0.772398
vt 0.227602 0.772398
vt 0.772398 0.227602
vt 0.227602 0.227602
vt 0.227602 0.772398
vt 0.772398 0.227602
vt 0.772398 0.772398
vt 0.227602 0.772398
vt 0.772398 0.227602
vt 0.772398 0.772398
vt 0.227602 0.772398
vt 0.772398 0.227602
vt 0.227602 0.227602
vt 0.227602 0.772398
vt 0.772398 0.227602
vt 0.772398 0.772398
vt 0.227602 0.772398
vt 0.772398 0.227602
vt 0.772398 0.772398
vt 0.227602 0.772398
vt 0.772398 0.227602
vt 0.227602 0.227602
vt 0.227602 0.772398
vt 0.772398 0.227602
vt 0.227602 0.772398
vt 0.772398 0.227602
vt 0.227602 0.227602
vt 0.227602 0.772398
vt 0.772398 0.227602
vt 0.772398 0.772398
vt 0.227602 0.772398
vt 0.772398 0.227602
vt 0.227602 0.227602
vt 0.227602 0.772398
vt 0.772398 0.227602
vt 0.772398 0.772398
vt 0.227602 0.772398
vt 0.772398 0.227602
vt 0.772398 0.772398
vt 0.227602 0.772398
vt 0.772398 0.227602
vt 0.227602 0.227602
vt 0.227602 0.772398
vt 0.772398 0.227602
vt 0.772398 0.772398
vt 0.227602 0.772398
vt 0.772398 0.227602
vt 0.772398 0.772398
vt 0.227602 0.772398
vt 0.772398 0.227602
vt 0.227602 0.227602
vt 0.227602 0.772398
vt 0.772398 0.227602
vt 0.772398 0.772398
vt 0.227602 0.772398
vt 0.772398 0.227602
vt 0.772398 0.772398
vt 0.227602 0.772398
vt 0.772398 0.227602
vt 0.227602 0.227602
vt 0.227602 0.772398
vt 0.772398 0.227602
vt 0.227602 0.772398
vt 0.772398 0.227602
vt 0.227602 0.227602
vt 0.227602 0.772398
vt 0.772398 0.227602
vt 0.227602 0.227602
vt 0.227602 0.772398
vt 0.772398 0.227602
vt 0.227602 0.227602
vt 0.227602 0.772398
vt 0.772398 0.227602
vt 0.227602 0.227602
vt 0.227602 0.772398
vt 0.772398 0.227602
vt 0.227602 0.227602
vt 0.227602 0.227602
vt 0.227602 0.772398
vt 0.772398 0.227602
vt 0.227602 0.227602
vt 0.227602 0.772398
vt 0.772398 0.227602
vt 0.227602 0.227602
vt 0.227602 0.772398
vt 0.772398 0.227602
vt 0.227602 0.227602
vt 0.227602 0.772398
vt 0.772398 0.227602
vt 0.227602 0.227602
vn 0.2667 -0.9636 0.0175
vn -0.4766 0.8790 0.0160
vn -0.4766 0.8790 -0.0160
vn 0.2667 -0.9636 -0.0175
vn -0.3156 -0.9475 -0.0516
vn 0.3156 0.9475 -0.0516
vn 0.4195 0.9068 -0.0412
vn -0.3354 -0.9411 -0.0427
vn -0.2667 -0.9636 -0.0175
vn 0.4766 0.8790 -0.0160
vn 0.4766 0.8790 0.0160
vn -0.2667 -0.9636 0.0175
vn 0.3156 -0.9475 0.0516
vn -0.3156 0.9475 0.0516
vn -0.4195 0.9068 0.0412
vn 0.3354 -0.9411 0.0427
vn -0.3160 -0.9487 -0.0057
vn -0.3619 -0.9322 -0.0068
vn -0.3619 -0.9322 0.0068
vn -0.3160 -0.9487 0.0057
vn -0.3160 0.9487 -0.0057
vn -0.3956 0.9184 -0.0067
vn -0.3956 0.9184 0.0067
vn -0.3160 0.9487 0.0057
vn 0.3956 0.9184 -0.0067
vn 0.3160 0.9487 -0.0057
vn 0.3160 0.9487 0.0057
vn 0.3956 0.9184 0.0067
vn 0.1775 0.9841 -0.0060
vn 0.0995 0.9950 -0.0060
vn 0.0995 0.9950 0.0060
vn 0.1775 0.9841 0.0060
vn 0.0917 0.9958 -0.0060
vn 0.0440 0.9990 -0.0060
vn 0.0440 0.9990 0.0060
vn 0.0917 0.9958 0.0060
vn -0.0440 0.9990 -0.0060
vn -0.0917 0.9958 -0.0060
vn -0.0917 0.9958 0.0060
vn -0.0440 0.9990 0.0060
vn -0.0995 0.9950 -0.0060
vn -0.1775 0.9841 -0.0060
vn -0.1775 0.9841 0.0060
vn -0.0995 0.9950 0.0060
vn 0.3619 -0.9322 -0.0068
vn 0.3160 -0.9487 -0.0057
vn 0.3160 -0.9487 0.0057
vn 0.3619 -0.9322 0.0068
vn 0.1775 -0.9841 -0.0060
vn 0.0995 -0.9950 -0.0060
vn 0.0995 -0.9950 0.0060
vn 0.1775 -0.9841 0.0060
vn 0.0917 -0.9958 -0.0060
vn 0.0440 -0.9990 -0.0060
vn 0.0440 -0.9990 0.0060
vn 0.0917 -0.9958 0.0060
vn -0.0440 -0.9990 -0.0060
vn -0.0917 -0.9958 -0.0060
vn -0.0917 -0.9958 0.0060
vn -0.0440 -0.9990 0.0060
vn -0.0995 -0.9950 -0.0060
vn -0.1775 -0.9841 -0.0060
vn -0.1775 -0.9841 0.0060
vn -0.0995 -0.9950 0.0060
vn -0.3354 -0.9411 0.0427
vn 0.4195 0.9068 0.0412
vn 0.3156 0.9475 0.0516
vn -0.3156 -0.9475 0.0516
vn -0.1773 -0.9827 0.0535
vn 0.1773 0.9827 0.0535
vn 0.0994 0.9936 0.0541
vn -0.0994 -0.9936 0.0541
vn -0.0916 -0.9943 0.0542
vn 0.0916 0.9943 0.0542
vn 0.0440 0.9976 0.0543
vn -0.0440 -0.9976 0.0543
vn 0.0440 -0.9976 0.0543
vn -0.0440 0.9976 0.0543
vn -0.0916 0.9943 0.0542
vn 0.0916 -0.9943 0.0542
vn 0.0994 -0.9936 0.0541
vn -0.0994 0.9936 0.0541
vn -0.1773 0.9827 0.0535
vn 0.1773 -0.9827 0.0535
vn 0.3354 -0.9411 -0.0427
vn -0.4195 0.9068 -0.0412
vn -0.3156 0.9475 -0.0516
vn 0.3156 -0.9475 -0.0516
vn 0.1773 -0.9827 -0.0535
vn -0.1773 0.9827 -0.0535
vn -0.0994 0.9936 -0.0541
vn 0.0994 -0.9936 -0.0541
vn 0.0916 -0.9943 -0.0542
vn -0.0916 0.9943 -0.0542
vn -0.0440 0.9976 -0.0543
vn 0.0440 -0.9976 -0.0543
vn -0.0440 -0.9976 -0.0543
vn 0.0440 0.9976 -0.0543
vn 0.0916 0.9943 -0.0542
vn -0.0916 -0.9943 -0.0542
vn -0.0994 -0.9936 -0.0541
vn 0.0994 0.9936 -0.0541
vn 0.1773 0.9827 -0.0535
vn -0.1773 -0.9827 -0.0535
usemtl Material
s off
f 1/1/1 27/2/1 79/3/1 28/4/1
f 1/1/2 28/5/2 80/6/2 29/7/2
f 1/1/3 29/8/3 82/9/3 30/10/3
f 1/1/4 30/11/4 81/12/4 27/13/4
f 2/14/5 39/15/5 87/16/5 78/17/5
f 2/14/6 78/18/6 96/19/6 32/20/6
f 2/14/7 32/21/7 86/22/7 33/23/7
f 2/14/8 33/24/8 85/25/8 39/26/8
f 3/27/9 34/28/9 85/25/9 33/23/9
f 3/27/10 33/24/10 86/22/10 35/29/10
f 3/27/11 35/30/11 84/31/11 36/32/11
f 3/27/12 36/33/12 83/34/12 34/35/12
f 4/36/13 49/37/13 97/38/13 73/39/13
f 4/36/14 73/40/14 106/41/14 38/42/14
f 4/36/15 38/43/15 80/6/15 28/4/15
f 4/36/16 28/5/16 79/3/16 49/44/16
f 5/45/17 68/46/17 87/16/17 39/26/17
f 5/45/18 39/15/18 85/25/18 34/35/18
f 5/45/19 34/28/19 83/34/19 37/47/19
f 5/45/20 37/48/20 101/49/20 68/50/20
f 6/51/21 63/52/21 92/53/21 44/54/21
f 6/51/22 44/55/22 82/9/22 29/7/22
f 6/51/23 29/8/23 80/6/23 38/42/23
f 6/51/24 38/43/24 106/41/24 63/56/24
f 7/57/25 35/30/25 86/22/25 32/20/25
f 7/57/26 32/21/26 96/19/26 59/58/26
f 7/57/27 59/59/27 102/60/27 54/61/27
f 7/57/28 54/62/28 84/31/28 35/29/28
f 8/63/29 59/59/29 96/19/29 48/64/29
f 8/63/30 48/65/30 95/66/30 60/67/30
f 8/63/31 60/68/31 103/69/31 55/70/31
f 8/63/32 55/71/32 102/60/32 59/58/32
f 9/72/33 60/68/33 95/66/33 47/73/33
f 9/72/34 47/74/34 94/75/34 61/76/34
f 9/72/35 61/77/35 104/78/35 56/79/35
f 9/72/36 56/80/36 103/69/36 60/67/36
f 10/81/37 61/77/37 94/75/37 46/82/37
f 10/81/38 46/83/38 93/84/38 62/85/38
f 10/81/39 62/86/39 105/87/39 57/88/39
f 10/81/40 57/89/40 104/78/40 61/76/40
f 11/90/41 62/86/41 93/84/41 45/91/41
f 11/90/42 45/92/42 92/53/42 63/56/42
f 11/90/43 63/52/43 106/41/43 58/93/43
f 11/90/44 58/94/44 105/87/44 62/85/44
f 12/95/45 27/2/45 81/12/45 31/96/45
f 12/95/46 31/97/46 91/98/46 64/99/46
f 12/95/47 64/100/47 97/38/47 49/44/47
f 12/95/48 49/37/48 79/3/48 27/13/48
f 13/101/49 64/100/49 91/98/49 43/102/49
f 13/101/50 43/103/50 90/104/50 65/105/50
f 13/101/51 65/106/51 98/107/51 50/108/51
f 13/101/52 50/109/52 97/38/52 64/99/52
f 14/110/53 65/106/53 90/104/53 42/111/53
f 14/110/54 42/112/54 89/113/54 66/114/54
f 14/110/55 66/115/55 99/116/55 51/117/55
f 14/110/56 51/118/56 98/107/56 65/105/56
f 15/119/57 66/115/57 89/113/57 41/120/57
f 15/119/58 41/121/58 88/122/58 67/123/58
f 15/119/59 67/124/59 100/125/59 52/126/59
f 15/119/60 52/127/60 99/116/60 66/114/60
f 16/128/61 67/124/61 88/122/61 40/129/61
f 16/128/62 40/130/62 87/16/62 68/50/62
f 16/128/63 68/46/63 101/49/63 53/131/63
f 16/128/64 53/132/64 100/125/64 67/123/64
f 17/133/65 37/48/65 83/34/65 36/32/65
f 17/133/66 36/33/66 84/31/66 54/61/66
f 17/133/67 54/62/67 102/60/67 69/134/67
f 17/133/68 69/135/68 101/49/68 37/47/68
f 18/136/69 53/132/69 101/49/69 69/134/69
f 18/136/70 69/135/70 102/60/70 55/70/70
f 18/136/71 55/71/71 103/69/71 70/137/71
f 18/136/72 70/138/72 100/125/72 53/131/72
f 19/139/73 52/127/73 100/125/73 70/137/73
f 19/139/74 70/138/74 103/69/74 56/79/74
f 19/139/75 56/80/75 104/78/75 71/140/75
f 19/139/76 71/141/76 99/116/76 52/126/76
f 20/142/77 51/118/77 99/116/77 71/140/77
f 20/142/78 71/141/78 104/78/78 57/88/78
f 20/142/79 57/89/79 105/87/79 72/143/79
f 20/142/80 72/144/80 98/107/80 51/117/80
f 21/145/81 50/109/81 98/107/81 72/143/81
f 21/145/82 72/144/82 105/87/82 58/93/82
f 21/145/83 58/94/83 106/41/83 73/39/83
f 21/145/84 73/40/84 97/38/84 50/108/84
f 22/146/85 31/97/85 81/12/85 30/10/85
f 22/146/86 30/11/86 82/9/86 44/54/86
f 22/146/87 44/55/87 92/53/87 74/147/87
f 22/146/88 74/148/88 91/98/88 31/96/88
f 23/149/89 43/103/89 91/98/89 74/147/89
f 23/149/90 74/148/90 92/53/90 45/91/90
f 23/149/91 45/92/91 93/84/91 75/150/91
f 23/149/92 75/151/92 90/104/92 43/102/92
f 24/152/93 42/112/93 90/104/93 75/150/93
f 24/152/94 75/151/94 93/84/94 46/82/94
f 24/152/95 46/83/95 94/75/95 76/153/95
f 24/152/96 76/154/96 89/113/96 42/111/96
f 25/155/97 41/121/97 89/113/97 76/153/97
f 25/155/98 76/154/98 94/75/98 47/73/98
f 25/155/99 47/74/99 95/66/99 77/156/99
f 25/155/100 77/157/100 88/122/100 41/120/100
f 26/158/101 40/130/101 88/122/101 77/156/101
f 26/158/102 77/157/102 95/66/102 48/64/102
f 26/158/103 48/65/103 96/19/103 78/17/103
f 26/158/104 78/18/104 87/16/104 40/129/104
